<svg width="32" height="16" viewBox="0 0 32 16" fill="none" xmlns="http://www.w3.org/2000/svg">
<path d="M1 9C0.447715 9 0 8.55228 0 8C0 7.44772 0.447715 7 1 7V8V9ZM31.7071 7.29289C32.0976 7.68342 32.0976 8.31658 31.7071 8.70711L25.3431 15.0711C24.9526 15.4616 24.3195 15.4616 23.9289 15.0711C23.5384 14.6805 23.5384 14.0474 23.9289 13.6569L29.5858 8L23.9289 2.34315C23.5384 1.95262 23.5384 1.31946 23.9289 0.928932C24.3195 0.538408 24.9526 0.538408 25.3431 0.928932L31.7071 7.29289ZM1 8V7H31V8V9H1V8Z" fill="#211e1e"/>
</svg>
