<svg width="28" height="28" viewBox="0 0 28 28" fill="none" xmlns="http://www.w3.org/2000/svg">
<circle cx="14" cy="14" r="13.5" stroke="#211E1E"/>
<path d="M19 13.5C19.2761 13.5 19.5 13.7239 19.5 14C19.5 14.2761 19.2761 14.5 19 14.5V13.5ZM9.64645 14.3536C9.45118 14.1583 9.45118 13.8417 9.64645 13.6464L12.8284 10.4645C13.0237 10.2692 13.3403 10.2692 13.5355 10.4645C13.7308 10.6597 13.7308 10.9763 13.5355 11.1716L10.7071 14L13.5355 16.8284C13.7308 17.0237 13.7308 17.3403 13.5355 17.5355C13.3403 17.7308 13.0237 17.7308 12.8284 17.5355L9.64645 14.3536ZM19 14.5H10V13.5H19V14.5Z" fill="#211E1E"/>
</svg>
