<svg width="33" height="29" viewBox="0 0 33 29" fill="none" xmlns="http://www.w3.org/2000/svg">
<path d="M4.06359 23L11.6236 6.2H14.6956L22.2796 23H19.0156L12.5116 7.856H13.7596L7.27959 23H4.06359ZM7.54359 19.112L8.38359 16.664H17.4556L18.2956 19.112H7.54359ZM25.885 23.168C25.341 23.168 24.877 22.984 24.493 22.616C24.109 22.232 23.917 21.752 23.917 21.176C23.917 20.568 24.109 20.088 24.493 19.736C24.877 19.368 25.341 19.184 25.885 19.184C26.429 19.184 26.893 19.368 27.277 19.736C27.661 20.088 27.853 20.568 27.853 21.176C27.853 21.752 27.661 22.232 27.277 22.616C26.893 22.984 26.429 23.168 25.885 23.168Z" fill="#F1EFEF"/>
</svg>
