<svg width="29" height="28" viewBox="0 0 29 28" fill="none" xmlns="http://www.w3.org/2000/svg">
<circle cx="14.5" cy="14" r="13.5" stroke="#211E1E"/>
<path d="M19.5 13.5C19.7761 13.5 20 13.7239 20 14C20 14.2761 19.7761 14.5 19.5 14.5V13.5ZM10.1464 14.3536C9.95118 14.1583 9.95118 13.8417 10.1464 13.6464L13.3284 10.4645C13.5237 10.2692 13.8403 10.2692 14.0355 10.4645C14.2308 10.6597 14.2308 10.9763 14.0355 11.1716L11.2071 14L14.0355 16.8284C14.2308 17.0237 14.2308 17.3403 14.0355 17.5355C13.8403 17.7308 13.5237 17.7308 13.3284 17.5355L10.1464 14.3536ZM19.5 14.5H10.5V13.5H19.5V14.5Z" fill="#211E1E"/>
</svg>
