<svg width="27" height="22" viewBox="0 0 27 22" fill="none" xmlns="http://www.w3.org/2000/svg">
<path d="M9.39675 18.24C8.08475 18.24 6.87675 18.024 5.77275 17.592C4.66875 17.16 3.70875 16.56 2.89275 15.792C2.07675 15.008 1.44475 14.096 0.99675 13.056C0.54875 12 0.32475 10.848 0.32475 9.6C0.32475 8.352 0.54875 7.208 0.99675 6.168C1.44475 5.112 2.07675 4.2 2.89275 3.432C3.70875 2.648 4.66875 2.04 5.77275 1.608C6.87675 1.176 8.07675 0.959999 9.37275 0.959999C10.6848 0.959999 11.8848 1.176 12.9728 1.608C14.0768 2.04 15.0368 2.64 15.8528 3.408C16.6688 4.176 17.3008 5.088 17.7488 6.144C18.1968 7.2 18.4208 8.352 18.4208 9.6C18.4208 10.848 18.1968 12 17.7488 13.056C17.3008 14.112 16.6688 15.024 15.8528 15.792C15.0368 16.56 14.0768 17.16 12.9728 17.592C11.8848 18.024 10.6928 18.24 9.39675 18.24ZM14.8688 21.672C14.2768 21.672 13.7008 21.6 13.1408 21.456C12.5968 21.328 12.0528 21.104 11.5088 20.784C10.9808 20.48 10.4288 20.072 9.85275 19.56C9.27675 19.064 8.64475 18.448 7.95675 17.712L11.2688 16.848C11.7168 17.44 12.1408 17.912 12.5408 18.264C12.9568 18.632 13.3568 18.896 13.7408 19.056C14.1248 19.216 14.5248 19.296 14.9408 19.296C16.0448 19.296 17.0048 18.848 17.8208 17.952L19.2608 19.68C18.1408 21.008 16.6768 21.672 14.8688 21.672ZM9.37275 15.504C10.2208 15.504 11.0048 15.36 11.7248 15.072C12.4448 14.784 13.0688 14.376 13.5968 13.848C14.1248 13.304 14.5328 12.672 14.8208 11.952C15.1248 11.232 15.2768 10.448 15.2768 9.6C15.2768 8.736 15.1248 7.952 14.8208 7.248C14.5328 6.528 14.1248 5.904 13.5968 5.376C13.0688 4.832 12.4448 4.416 11.7248 4.128C11.0048 3.84 10.2208 3.696 9.37275 3.696C8.52475 3.696 7.74075 3.84 7.02075 4.128C6.30075 4.416 5.67675 4.832 5.14875 5.376C4.62075 5.904 4.20475 6.528 3.90075 7.248C3.61275 7.952 3.46875 8.736 3.46875 9.6C3.46875 10.448 3.61275 11.232 3.90075 11.952C4.20475 12.672 4.62075 13.304 5.14875 13.848C5.67675 14.376 6.30075 14.784 7.02075 15.072C7.74075 15.36 8.52475 15.504 9.37275 15.504ZM24.7999 18.168C24.2559 18.168 23.7919 17.984 23.4079 17.616C23.0239 17.232 22.8319 16.752 22.8319 16.176C22.8319 15.568 23.0239 15.088 23.4079 14.736C23.7919 14.368 24.2559 14.184 24.7999 14.184C25.3439 14.184 25.8079 14.368 26.1919 14.736C26.5759 15.088 26.7679 15.568 26.7679 16.176C26.7679 16.752 26.5759 17.232 26.1919 17.616C25.8079 17.984 25.3439 18.168 24.7999 18.168Z" fill="#F1EFEF"/>
</svg>
