<svg width="63" height="63" viewBox="0 0 63 63" fill="none" xmlns="http://www.w3.org/2000/svg">
<circle opacity="0.7" cx="31.1636" cy="31.1636" r="31.1636" fill="#211E1E"/>
<path d="M18.3246 16.591L30.8775 29.1346L43.2971 16.7169C44.1434 15.9631 45.0194 16.4132 45.3695 16.791C45.594 17.0646 45.7098 17.4113 45.6948 17.765C45.6798 18.1186 45.5349 18.4542 45.288 18.7078L32.8666 31.1237L45.288 43.5359C45.8399 43.9989 45.8399 44.9063 45.3973 45.4138C44.9528 45.9194 44.1379 46.212 43.3693 45.612L30.8775 33.1127L18.3709 45.6175C17.8227 46.1083 16.9189 46.0083 16.4726 45.5212C16.0244 45.0323 15.854 44.1878 16.4263 43.5914L28.8884 31.1237L16.4781 18.7078C16.0244 18.2078 15.867 17.2929 16.4781 16.7169C17.0893 16.1409 18.0005 16.2206 18.3246 16.591Z" fill="#F7F9F4"/>
</svg>
