<?xml version="1.0" encoding="UTF-8"?>
<svg id="_ロゴ" data-name="ロゴ" xmlns="http://www.w3.org/2000/svg" viewBox="0 0 600 600">
  <defs>
    <style>
      .cls-1 {
        fill: #f7f8f8;
      }
    </style>
  </defs>
  <g>
    <path class="cls-1" d="M204.34,373.1l2.94-6.21c4.14,3.74,11.22,6.45,18.38,6.45,9.63,0,13.77-3.74,13.77-8.59,0-13.61-33.74-5.01-33.74-25.7,0-8.59,6.68-15.91,21.32-15.91,6.52,0,13.29,1.75,17.9,4.93l-2.63,6.37c-4.85-3.1-10.34-4.54-15.28-4.54-9.47,0-13.53,3.98-13.53,8.83,0,13.61,33.74,5.09,33.74,25.54,0,8.51-6.84,15.83-21.56,15.83-8.51,0-16.87-2.86-21.32-7Z"/>
    <path class="cls-1" d="M258.36,355.44v-31.67h7.96v31.35c0,12.33,5.65,17.9,15.68,17.9s15.75-5.57,15.75-17.9v-31.35h7.72v31.67c0,16.15-8.83,24.67-23.55,24.67s-23.55-8.51-23.55-24.67Z"/>
    <path class="cls-1" d="M316.66,373.1l2.94-6.21c4.14,3.74,11.22,6.45,18.38,6.45,9.63,0,13.77-3.74,13.77-8.59,0-13.61-33.74-5.01-33.74-25.7,0-8.59,6.68-15.91,21.32-15.91,6.52,0,13.29,1.75,17.9,4.93l-2.63,6.37c-4.85-3.1-10.34-4.54-15.28-4.54-9.47,0-13.53,3.98-13.53,8.83,0,13.61,33.74,5.09,33.74,25.54,0,8.51-6.84,15.83-21.56,15.83-8.51,0-16.87-2.86-21.32-7Z"/>
    <path class="cls-1" d="M419.06,323.77v55.7h-7.96v-24.83h-31.99v24.83h-7.96v-55.7h7.96v23.95h31.99v-23.95h7.96Z"/>
    <path class="cls-1" d="M435.75,323.77h7.96v55.7h-7.96v-55.7Z"/>
    <path class="cls-1" d="M262.5,466.61l-.4-.29c-4.59-13.14-9.75-27.73-12.23-34.73-.58-1.64-1-2.82-1.21-3.41-2.8,8.77-5.28,15.21-6.48,18.33l-.2.52c-2.25,5.85-4.55,12.34-6.83,19.3l-.41.29h-7.77l-.4-.29-17.01-50.87.4-.56h7.49l.4.29,13.34,40.16,13.91-40.16.4-.29h6.69l.4.29,13.62,40.37,13.62-40.37.4-.29h6.9l.4.56-17.01,50.87-.4.29h-7.63Z"/>
    <path class="cls-1" d="M301.48,414.76h7.96v51.97h-7.96v-51.97Z"/>
    <path class="cls-1" d="M443.69,460.09v6.5c-39.77.05-79.54.09-119.32.14v-5.05l33.73-40.46h-33.19v-6.46h43.31v5.05l-33.58,40.46c36.35-.06,72.69-.12,109.04-.18Z"/>
  </g>
  <path class="cls-1" d="M441.92,113.44L96.42,342.52c-3.59,3.61-4.22,9.23-1.57,13.46,2.76,4.41,8.41,6.25,13.33,4.28,111.32-80.43,222.64-160.86,333.97-241.29,2.76-1.74,3.34-3.95,2.71-4.91-.62-.95-2.42-.84-2.94-.62Z"/>
</svg>