<svg width="58" height="58" viewBox="0 0 58 58" fill="none" xmlns="http://www.w3.org/2000/svg">
<g clip-path="url(#clip0_206_2875)">
<path d="M29 5.22226C36.7484 5.22226 37.666 5.25625 40.7133 5.39219C43.5453 5.5168 45.0746 5.99258 46.0941 6.38906C47.4422 6.91016 48.4164 7.54453 49.4246 8.55273C50.4441 9.57226 51.0672 10.5352 51.5883 11.8832C51.9848 12.9027 52.4605 14.4434 52.5852 17.2641C52.7211 20.3227 52.7551 21.2402 52.7551 28.9773C52.7551 36.7258 52.7211 37.6434 52.5852 40.6906C52.4605 43.5227 51.9848 45.052 51.5883 46.0715C51.0672 47.4195 50.4328 48.3937 49.4246 49.402C48.4051 50.4215 47.4422 51.0445 46.0941 51.5656C45.0746 51.9621 43.534 52.4379 40.7133 52.5625C37.6547 52.6984 36.7371 52.7324 29 52.7324C21.2516 52.7324 20.334 52.6984 17.2867 52.5625C14.4547 52.4379 12.9254 51.9621 11.9059 51.5656C10.5578 51.0445 9.58359 50.4102 8.57539 49.402C7.55586 48.3824 6.93281 47.4195 6.41172 46.0715C6.01523 45.052 5.53945 43.5113 5.41484 40.6906C5.27891 37.632 5.24492 36.7145 5.24492 28.9773C5.24492 21.2289 5.27891 20.3113 5.41484 17.2641C5.53945 14.432 6.01523 12.9027 6.41172 11.8832C6.93281 10.5352 7.56719 9.56094 8.57539 8.55273C9.59492 7.5332 10.5578 6.91016 11.9059 6.38906C12.9254 5.99258 14.466 5.5168 17.2867 5.39219C20.334 5.25625 21.2516 5.22226 29 5.22226ZM29 0C21.127 0 20.1414 0.0339844 17.0488 0.169922C13.9676 0.305859 11.8492 0.804297 10.0141 1.51797C8.09961 2.26562 6.47969 3.25117 4.87109 4.87109C3.25117 6.47969 2.26562 8.09961 1.51797 10.0027C0.804297 11.8492 0.305859 13.9562 0.169922 17.0375C0.0339844 20.1414 0 21.127 0 29C0 36.873 0.0339844 37.8586 0.169922 40.9512C0.305859 44.0324 0.804297 46.1508 1.51797 47.9859C2.26562 49.9004 3.25117 51.5203 4.87109 53.1289C6.47969 54.7375 8.09961 55.7344 10.0027 56.4707C11.8492 57.1844 13.9562 57.6828 17.0375 57.8187C20.1301 57.9547 21.1156 57.9887 28.9887 57.9887C36.8617 57.9887 37.8473 57.9547 40.9398 57.8187C44.0211 57.6828 46.1395 57.1844 47.9746 56.4707C49.8777 55.7344 51.4977 54.7375 53.1062 53.1289C54.7148 51.5203 55.7117 49.9004 56.448 47.9973C57.1617 46.1508 57.6602 44.0437 57.7961 40.9625C57.932 37.8699 57.966 36.8844 57.966 29.0113C57.966 21.1383 57.932 20.1527 57.7961 17.0602C57.6602 13.9789 57.1617 11.8605 56.448 10.0254C55.7344 8.09961 54.7488 6.47969 53.1289 4.87109C51.5203 3.2625 49.9004 2.26562 47.9973 1.5293C46.1508 0.815625 44.0437 0.317187 40.9625 0.18125C37.8586 0.0339844 36.873 0 29 0Z" fill="white"/>
<path d="M29 14.1035C20.7758 14.1035 14.1035 20.7758 14.1035 29C14.1035 37.2242 20.7758 43.8965 29 43.8965C37.2242 43.8965 43.8965 37.2242 43.8965 29C43.8965 20.7758 37.2242 14.1035 29 14.1035ZM29 38.6629C23.6645 38.6629 19.3371 34.3355 19.3371 29C19.3371 23.6645 23.6645 19.3371 29 19.3371C34.3355 19.3371 38.6629 23.6645 38.6629 29C38.6629 34.3355 34.3355 38.6629 29 38.6629Z" fill="white"/>
<path d="M47.9633 13.5144C47.9633 15.4401 46.4 16.9921 44.4855 16.9921C42.5598 16.9921 41.0078 15.4288 41.0078 13.5144C41.0078 11.5886 42.5711 10.0366 44.4855 10.0366C46.4 10.0366 47.9633 11.5999 47.9633 13.5144Z" fill="white"/>
</g>
<defs>
<clipPath id="clip0_206_2875">
<rect width="58" height="58" fill="white"/>
</clipPath>
</defs>
</svg>
