<svg width="90" height="84" viewBox="0 0 90 84" fill="none" xmlns="http://www.w3.org/2000/svg">
<path d="M84.5832 11.167H75.5554V16.7225H83.8887V77.8337H6.11096V16.7225H14.4443V11.167H5.41651C4.76717 11.1778 4.12633 11.3165 3.53059 11.5751C2.93484 11.8336 2.39588 12.207 1.94446 12.6739C1.49305 13.1408 1.13803 13.692 0.899695 14.2962C0.661357 14.9003 0.544365 15.5454 0.555402 16.1948V78.3614C0.544365 79.0108 0.661357 79.6559 0.899695 80.2601C1.13803 80.8642 1.49305 81.4154 1.94446 81.8823C2.39588 82.3492 2.93484 82.7226 3.53059 82.9811C4.12633 83.2397 4.76717 83.3784 5.41651 83.3892H84.5832C85.2325 83.3784 85.8734 83.2397 86.4691 82.9811C87.0648 82.7226 87.6038 82.3492 88.0552 81.8823C88.5066 81.4154 88.8617 80.8642 89.1 80.2601C89.3383 79.6559 89.4553 79.0108 89.4443 78.3614V16.1948C89.4553 15.5454 89.3383 14.9003 89.1 14.2962C88.8617 13.692 88.5066 13.1408 88.0552 12.6739C87.6038 12.207 87.0648 11.8336 86.4691 11.5751C85.8734 11.3165 85.2325 11.1778 84.5832 11.167Z" fill="#d2d0d0"/>
<path d="M17.2227 33.3887H22.7782V38.9442H17.2227V33.3887Z" fill="#d2d0d0"/>
<path d="M33.8889 33.3889H39.4445V38.9445H33.8889V33.3889Z" fill="#d2d0d0"/>
<path d="M50.5555 33.3889H56.1111V38.9445H50.5555V33.3889Z" fill="#d2d0d0"/>
<path d="M67.2227 33.3887H72.7782V38.9442H67.2227V33.3887Z" fill="#d2d0d0"/>
<path d="M17.2227 47.2773H22.7782V52.8329H17.2227V47.2773Z" fill="#d2d0d0"/>
<path d="M33.8887 47.2773H39.4442V52.8329H33.8887V47.2773Z" fill="#d2d0d0"/>
<path d="M50.5557 47.2773H56.1112V52.8329H50.5557V47.2773Z" fill="#d2d0d0"/>
<path d="M67.2227 47.2773H72.7782V52.8329H67.2227V47.2773Z" fill="#d2d0d0"/>
<path d="M17.2227 61.167H22.7782V66.7225H17.2227V61.167Z" fill="#d2d0d0"/>
<path d="M33.8887 61.167H39.4442V66.7225H33.8887V61.167Z" fill="#d2d0d0"/>
<path d="M50.5557 61.167H56.1112V66.7225H50.5557V61.167Z" fill="#d2d0d0"/>
<path d="M67.2227 61.167H72.7782V66.7225H67.2227V61.167Z" fill="#d2d0d0"/>
<path d="M22.7778 22.2778C23.5145 22.2778 24.221 21.9851 24.742 21.4642C25.2629 20.9432 25.5556 20.2367 25.5556 19.5V2.83332C25.5556 2.09661 25.2629 1.39007 24.742 0.869134C24.221 0.3482 23.5145 0.055542 22.7778 0.055542C22.0411 0.055542 21.3345 0.3482 20.8136 0.869134C20.2927 1.39007 20 2.09661 20 2.83332V19.5C20 20.2367 20.2927 20.9432 20.8136 21.4642C21.3345 21.9851 22.0411 22.2778 22.7778 22.2778Z" fill="#d2d0d0"/>
<path d="M67.2222 22.2778C67.9589 22.2778 68.6655 21.9851 69.1864 21.4642C69.7074 20.9432 70 20.2367 70 19.5V2.83332C70 2.09661 69.7074 1.39007 69.1864 0.869134C68.6655 0.3482 67.9589 0.055542 67.2222 0.055542C66.4855 0.055542 65.779 0.3482 65.258 0.869134C64.7371 1.39007 64.4445 2.09661 64.4445 2.83332V19.5C64.4445 20.2367 64.7371 20.9432 65.258 21.4642C65.779 21.9851 66.4855 22.2778 67.2222 22.2778Z" fill="#d2d0d0"/>
<path d="M31.1113 11.167H58.8891V16.7225H31.1113V11.167Z" fill="#d2d0d0"/>
</svg>
