<svg width="64" height="83" viewBox="0 0 64 83" fill="none" xmlns="http://www.w3.org/2000/svg">
<path d="M55.7904 9.16602H49.3039V13.3509C49.3039 13.8542 49.2493 14.3461 49.1504 14.8213H56.4849C57.2974 14.8213 57.9563 15.4891 57.9563 16.3121V73.9485C57.9563 74.7717 57.2972 75.4393 56.4849 75.4393H7.51523C6.70278 75.4393 6.04385 74.7715 6.04385 73.9485V16.3121C6.04385 15.4889 6.70294 14.8213 7.51523 14.8213H14.8498C14.7508 14.3463 14.6964 13.8542 14.6964 13.3509V9.16602H8.20974C4.14654 9.16602 0.852539 12.5035 0.852539 16.6205V75.3483C0.852539 79.4651 4.14654 82.8025 8.20974 82.8025H55.7904C59.8536 82.8025 63.1476 79.4651 63.1476 75.3483V16.6205C63.1476 12.5035 59.8536 9.16602 55.7904 9.16602Z" fill="#d2d0d0"/>
<path d="M21.7056 17.8225H42.293C44.7315 17.8225 46.7075 15.8204 46.7075 13.3498V12.8361V9.38449V8.87096C46.7075 6.40032 44.7315 4.39826 42.293 4.39826H36.7139C36.4921 1.94444 34.4783 0.015625 31.9993 0.015625C29.519 0.015625 27.5051 1.94444 27.2833 4.39826H21.7056C19.2671 4.39826 17.2911 6.40032 17.2911 8.87096V9.38449V12.8363V13.35C17.2911 15.8206 19.2671 17.8225 21.7056 17.8225ZM31.9993 2.64553C33.1932 2.64553 34.1615 3.62667 34.1615 4.83612C34.1615 6.04702 33.1932 7.02817 31.9993 7.02817C30.8042 7.02817 29.8358 6.04702 29.8358 4.83612C29.8358 3.62651 30.8042 2.64553 31.9993 2.64553Z" fill="#d2d0d0"/>
<path d="M18.9707 34.8003L20.8667 32.8794L26.0796 27.5965L24.1848 25.6768L18.9707 30.9584L15.654 27.5965L13.7578 29.5174L18.9707 34.8003Z" fill="#d2d0d0"/>
<path d="M24.1848 39.4824L18.9707 44.7641L15.654 41.4022L13.7578 43.3232L18.9707 48.6062L20.8667 46.6851L26.0796 41.4022L24.1848 39.4824Z" fill="#d2d0d0"/>
<path d="M15.654 55.2078L13.7578 57.1289L18.9707 62.4118L20.8667 60.4908L26.0796 55.2078L24.1848 53.2881L18.9707 58.5697L15.654 55.2078Z" fill="#d2d0d0"/>
</svg>
