<svg width="88" height="56" viewBox="0 0 88 56" fill="none" xmlns="http://www.w3.org/2000/svg">
<path d="M72 34.5C72 39.5 71.8397 42.1118 68 46.5C61 54.5 27.5 54.7727 20 50C15.5159 47.1465 12 41.5 12 36" stroke="#d2d0d0" stroke-width="4" stroke-linecap="round" stroke-linejoin="round"/>
<path d="M44.1674 2C12.3016 2 4.00225 19.2653 2.16262 33.0783C1.37301 38.9894 3.42264 38.8958 9.10532 36.3471C17.791 32.4483 29.337 29.9572 44.1674 29.9572C58.9768 29.9572 70.3085 32.4411 78.8935 36.3291C84.5635 38.8958 86.6048 38.9858 85.8488 33.0747C84.0847 19.2653 76.0332 2 44.1674 2Z" stroke="#d2d0d0" stroke-width="4" stroke-linecap="round" stroke-linejoin="round"/>
<path d="M23.1505 30.0003C23.1505 19.467 24.5001 8 39.4996 2.5M54.5001 29C54.5001 20.9208 56.0001 10.5 64.5001 5.5" stroke="#d2d0d0" stroke-width="4" stroke-linecap="round" stroke-linejoin="round"/>
</svg>
