<svg width="96" height="72" viewBox="0 0 96 72" fill="none" xmlns="http://www.w3.org/2000/svg">
<path d="M39.2806 60.8336H3.69752V9.21104H39.2806V29.833L42.516 31.4378V5.56507C42.516 2.743 40.1829 0.434662 37.3336 0.434662H5.6415C2.78626 0.434662 0.459167 2.74281 0.459167 5.56507V66.8196C0.459167 69.639 2.78626 71.9501 5.6415 71.9501H37.3334C40.1829 71.9501 42.5158 69.639 42.5158 66.8196V48.1411C41.4247 47.6013 40.3337 47.0616 39.2804 46.5363L39.2806 60.8336ZM21.4875 67.1182C20.6315 67.1182 19.9351 66.4292 19.9351 65.5794C19.9351 64.7296 20.6315 64.0406 21.4875 64.0406C22.3434 64.0406 23.0457 64.7296 23.0457 65.5794C23.0457 66.4292 22.3436 67.1182 21.4875 67.1182Z" fill="#d2d0d0"/>
<path d="M85.6349 29.6979L67.5692 20.7262C66.6871 20.2898 65.7353 20.0774 64.8068 20.0802C62.5551 20.0745 60.3788 21.3091 59.2995 23.4392C59.0267 23.9731 58.8527 24.5302 58.7539 25.0928C58.6408 25.0871 58.5275 25.0756 58.4172 25.0756C56.1655 25.0699 53.9892 26.3044 52.9069 28.4345C52.4774 29.2757 52.2714 30.183 52.2656 31.0672C51.6127 31.2825 51.0179 31.6097 50.5449 32.0232C49.7237 32.7238 49.1404 33.5907 48.6733 34.5037C48.4614 34.9287 48.3309 35.365 48.2497 35.8185L36.3877 29.9272C35.5056 29.4909 34.5539 29.2784 33.6253 29.2784C31.3707 29.2755 29.1974 30.513 28.1121 32.6403V32.6433C27.671 33.5131 27.4621 34.452 27.4621 35.3707C27.4564 37.5986 28.7041 39.7546 30.863 40.8256L53.4525 52.0395C53.7862 52.206 57.567 54.0807 57.9182 54.256L57.9124 54.253C58.1446 54.3649 58.3942 54.5143 58.6031 54.6608L50.5393 56.57C47.4402 57.3107 45.357 60.0381 45.357 63.0641C45.357 63.5751 45.4179 64.1006 45.5457 64.6202C46.2885 67.6893 49.0509 69.7507 52.1093 69.7507C52.6317 69.7507 53.1539 69.6904 53.6763 69.5669H53.6792L70.7845 65.5189C74.3594 64.7467 76.5821 64.0117 79.594 63.1503C82.3739 62.3551 85.0579 61.5196 87.504 60.0813C89.9472 58.6544 92.109 56.5643 93.6324 53.5355C94.9262 50.9861 95.5412 48.2616 95.5412 45.5829C95.5442 39.0803 91.9112 32.8101 85.6349 29.6979ZM90.1732 51.8187C88.9486 54.2044 87.4398 55.6513 85.5188 56.7912C83.6036 57.9253 81.2359 58.7005 78.5199 59.4698C75.4064 60.3599 73.3404 61.0459 69.9397 61.7781L69.902 61.7897L52.7763 65.8436H52.7821C52.5557 65.8952 52.3293 65.9182 52.1089 65.9211C50.8119 65.9182 49.6193 65.0397 49.3059 63.7306C49.2537 63.5009 49.2275 63.2826 49.2275 63.0645C49.2275 61.784 50.1154 60.604 51.4415 60.2911L59.9405 58.2814C60.1001 58.2468 60.2453 58.1895 60.3903 58.1149C61.0693 57.7588 61.6438 57.3599 62.1051 56.8115C62.5664 56.2746 62.8857 55.5196 62.8799 54.7787C62.8799 54.1213 62.6593 53.5557 62.4011 53.1251C62.0035 52.4704 61.5161 52.0399 61.0403 51.6781C60.5643 51.322 60.0828 51.0464 59.6505 50.8312L59.6475 50.8283C59.305 50.6618 55.5213 48.7842 55.1876 48.6177L32.5952 37.4009C31.7915 37.0047 31.333 36.2066 31.333 35.3711C31.333 35.0266 31.4084 34.6878 31.5768 34.3576C31.9772 33.5651 32.7809 33.1116 33.6253 33.1087C33.9706 33.1087 34.316 33.1833 34.6525 33.35L50.9076 41.4232C51.0236 41.4807 51.1455 41.5266 51.2732 41.558C51.2964 41.5637 51.3197 41.5667 51.3429 41.5724C51.4415 41.5924 51.546 41.6126 51.6446 41.6212C51.6796 41.6212 51.7085 41.6183 51.7375 41.6183C51.8333 41.6183 51.9262 41.6212 52.0218 41.6067C52.1089 41.5951 52.1988 41.5722 52.2859 41.5492C52.3178 41.5406 52.3526 41.5376 52.3845 41.5262C52.3845 41.5262 52.3845 41.5262 52.3875 41.5262C52.6196 41.4487 52.843 41.3252 53.0374 41.1645C53.0432 41.1558 53.0491 41.1472 53.0549 41.1415C53.2349 40.9864 53.3916 40.794 53.5077 40.5673C53.5658 40.4525 53.6122 40.3319 53.6469 40.2085C53.6527 40.1798 53.6527 40.1509 53.6586 40.1223C53.6818 40.0275 53.7021 39.9328 53.708 39.838C53.711 39.8035 53.7051 39.7721 53.7051 39.7405C53.7051 39.6486 53.708 39.5567 53.6934 39.4649C53.6876 39.4132 53.6701 39.3614 53.6584 39.3098C53.6467 39.2409 53.6352 39.172 53.612 39.106C53.612 39.1031 53.612 39.1031 53.612 39.1003C53.5307 38.8677 53.4089 38.6496 53.2436 38.4602C53.2406 38.4545 53.2319 38.4515 53.2261 38.4429C53.0666 38.2648 52.8722 38.1098 52.6428 37.9979C52.4369 37.8917 52.3236 37.7682 52.2075 37.5585C52.0972 37.3548 52.0276 37.059 52.0305 36.7776C52.0276 36.5134 52.1002 36.2753 52.1321 36.2207C52.4397 35.612 52.7879 35.1585 53.0664 34.9288C53.3567 34.6935 53.496 34.6562 53.7221 34.6475C53.8092 34.6475 53.9196 34.6591 54.0616 34.6964C54.7842 34.8888 55.5443 34.6534 56.0318 34.0936C56.5193 33.5337 56.6353 32.7528 56.3336 32.0753C56.2 31.7711 56.1304 31.4495 56.1304 31.1337C56.1304 30.8006 56.203 30.4733 56.3655 30.1518C56.7689 29.3593 57.5726 28.9058 58.417 28.9058C58.7594 28.9058 59.1076 28.9804 59.4441 29.1471L60.0332 29.44C60.7558 29.796 61.6204 29.6753 62.2123 29.1327C62.8041 28.5902 62.9958 27.749 62.694 27.0111C62.5779 26.7298 62.5198 26.4312 62.5198 26.1383C62.5198 25.8052 62.5952 25.4809 62.7577 25.1593C63.1581 24.3641 63.9648 23.9105 64.8062 23.9105C65.1487 23.9105 65.4969 23.9851 65.8306 24.1517L83.8993 33.1206C88.8263 35.5609 91.667 40.476 91.67 45.5834C91.6704 47.6845 91.1888 49.8061 90.1732 51.8187Z" fill="#d2d0d0"/>
</svg>
